<svg width="77" height="44" viewBox="0 0 77 44" fill="none" xmlns="http://www.w3.org/2000/svg">
<path d="M1.32 15V5.94C1.50667 5.78 1.84 5.6 2.32 5.4C2.8 5.18667 3.34667 5 3.96 4.84C4.58667 4.66667 5.21333 4.58 5.84 4.58C6.46667 4.58 6.96 4.62667 7.32 4.72C7.68 4.81333 7.95333 4.93333 8.14 5.08V7.26C7.91333 7.20667 7.62667 7.16667 7.28 7.14C6.93333 7.11333 6.57333 7.1 6.2 7.1C5.82667 7.08667 5.47333 7.08667 5.14 7.1C4.80667 7.11333 4.52667 7.14 4.3 7.18V15H1.32ZM13.7747 15.3C13.1614 15.3 12.5814 15.24 12.0347 15.12C11.5014 15.0133 11.028 14.8333 10.6147 14.58C10.2147 14.3133 9.90135 13.96 9.67469 13.52C9.44802 13.0667 9.33469 12.5067 9.33469 11.84C9.33469 11.2133 9.46135 10.6667 9.71469 10.2C9.98135 9.73333 10.3814 9.37333 10.9147 9.12C11.448 8.86667 12.1214 8.74 12.9347 8.74C13.388 8.74 13.828 8.78667 14.2547 8.88C14.6814 8.97333 15.0614 9.1 15.3947 9.26C15.7414 9.42 16.0147 9.59333 16.2147 9.78L16.3347 11.22C16.068 11.06 15.748 10.9333 15.3747 10.84C15.0014 10.7467 14.6014 10.7 14.1747 10.7C13.5214 10.7 13.0414 10.8 12.7347 11C12.4414 11.1867 12.2947 11.4867 12.2947 11.9C12.2947 12.1533 12.368 12.38 12.5147 12.58C12.6614 12.78 12.8547 12.9333 13.0947 13.04C13.348 13.1467 13.608 13.2 13.8747 13.2C14.5547 13.2 15.028 13.1533 15.2947 13.06C15.5747 12.9667 15.7147 12.78 15.7147 12.5V8.78C15.7147 8.16667 15.5147 7.72667 15.1147 7.46C14.728 7.18 14.1747 7.04 13.4547 7.04C12.868 7.04 12.2747 7.14667 11.6747 7.36C11.088 7.56 10.608 7.80667 10.2347 8.1V5.46C10.5814 5.24667 11.1147 5.04667 11.8347 4.86C12.568 4.67333 13.388 4.58 14.2947 4.58C14.6147 4.58 14.968 4.60667 15.3547 4.66C15.7414 4.71333 16.128 4.81333 16.5147 4.96C16.9014 5.09333 17.2547 5.29333 17.5747 5.56C17.908 5.82667 18.1747 6.16667 18.3747 6.58C18.5747 6.99333 18.6747 7.50667 18.6747 8.12L18.6547 12.9C18.6547 13.4733 18.4614 13.94 18.0747 14.3C17.688 14.6467 17.128 14.9 16.3947 15.06C15.6747 15.22 14.8014 15.3 13.7747 15.3ZM26.06 15.26C25.34 15.26 24.66 15.1533 24.02 14.94C23.38 14.7267 22.8133 14.4067 22.32 13.98C21.8267 13.5533 21.44 13.0133 21.16 12.36C20.88 11.7067 20.74 10.9467 20.74 10.08C20.74 9.16 20.8733 8.36 21.14 7.68C21.4067 6.98667 21.7733 6.41333 22.24 5.96C22.72 5.50667 23.28 5.16667 23.92 4.94C24.56 4.71333 25.2667 4.6 26.04 4.6C26.5867 4.6 27.1467 4.66 27.72 4.78C28.3067 4.88667 28.82 5.04 29.26 5.24V7.8C28.7933 7.58667 28.3333 7.41333 27.88 7.28C27.44 7.13333 26.9867 7.06 26.52 7.06C25.68 7.06 25 7.27333 24.48 7.7C23.9733 8.11333 23.72 8.79333 23.72 9.74C23.72 10.74 23.9467 11.4933 24.4 12C24.8533 12.5067 25.6067 12.76 26.66 12.76C27.1533 12.76 27.6267 12.6733 28.08 12.5C28.5467 12.3267 28.9467 12.1467 29.28 11.96V14.5C28.8133 14.74 28.3267 14.9267 27.82 15.06C27.3133 15.1933 26.7267 15.26 26.06 15.26ZM31.3591 15V0.879999H34.3591V6.88L33.0991 6.2C33.6324 5.73333 34.2591 5.35333 34.9791 5.06C35.7124 4.75333 36.4591 4.6 37.2191 4.6C37.9524 4.6 38.5991 4.72 39.1591 4.96C39.7191 5.2 40.1524 5.59333 40.4591 6.14C40.7791 6.67333 40.9391 7.41333 40.9391 8.36V15H37.9591V8.98C37.9591 8.31333 37.7924 7.83333 37.4591 7.54C37.1391 7.23333 36.6657 7.08 36.0391 7.08C35.7191 7.08 35.3991 7.12667 35.0791 7.22C34.7724 7.3 34.5324 7.40667 34.3591 7.54L34.3191 15H31.3591ZM48.1656 15.3C47.1523 15.3 46.2523 15.0933 45.4656 14.68C44.6923 14.2533 44.0856 13.6533 43.6456 12.88C43.219 12.0933 43.0056 11.16 43.0056 10.08C43.0056 8.32 43.439 6.96 44.3056 6C45.1856 5.02667 46.439 4.54 48.0656 4.54C49.1856 4.54 50.0856 4.78 50.7656 5.26C51.459 5.74 51.9656 6.44 52.2856 7.36C52.6056 8.28 52.759 9.4 52.7456 10.72H45.0456L44.7256 8.82H50.2856L49.8456 9.76C49.8323 8.68 49.679 7.92 49.3856 7.48C49.0923 7.04 48.6123 6.82 47.9456 6.82C47.5723 6.82 47.2323 6.91333 46.9256 7.1C46.6323 7.28667 46.399 7.6 46.2256 8.04C46.0656 8.46667 45.9856 9.06 45.9856 9.82C45.9856 10.78 46.2123 11.52 46.6656 12.04C47.1323 12.56 47.8723 12.82 48.8856 12.82C49.259 12.82 49.6256 12.78 49.9856 12.7C50.359 12.6067 50.7056 12.5 51.0256 12.38C51.3456 12.26 51.619 12.1533 51.8456 12.06V14.62C51.3656 14.82 50.8256 14.98 50.2256 15.1C49.639 15.2333 48.9523 15.3 48.1656 15.3ZM57.7761 15H54.8161V1.06H57.7761V15ZM5.2 39.3C4.28 39.2467 3.48667 39.0333 2.82 38.66C2.16667 38.2867 1.65333 37.74 1.28 37.02C0.92 36.2867 0.74 35.3667 0.74 34.26C0.74 33.14 0.88 32.2133 1.16 31.48C1.44 30.7333 1.82667 30.1533 2.32 29.74C2.82667 29.3267 3.43333 29.0333 4.14 28.86C4.84667 28.6867 5.63333 28.6 6.5 28.6C7.34 28.6 8.07333 28.7067 8.7 28.92C9.32667 29.1333 9.81333 29.44 10.16 29.84C10.5067 30.24 10.68 30.7333 10.68 31.32V39.12C10.68 39.8267 10.5667 40.4467 10.34 40.98C10.1133 41.5267 9.77333 41.98 9.32 42.34C8.88 42.7133 8.34 42.9933 7.7 43.18C7.07333 43.3667 6.34667 43.46 5.52 43.46C4.62667 43.46 3.86 43.3933 3.22 43.26C2.59333 43.14 2.11333 42.9867 1.78 42.8V40.18C1.98 40.26 2.27333 40.3667 2.66 40.5C3.04667 40.6333 3.48 40.74 3.96 40.82C4.44 40.9133 4.92 40.96 5.4 40.96C6.02667 40.96 6.50667 40.8733 6.84 40.7C7.18667 40.5267 7.42667 40.2933 7.56 40C7.69333 39.7067 7.76 39.3733 7.76 39V37.36L8.34 37.78C8.12667 38.0867 7.87333 38.3533 7.58 38.58C7.28667 38.8067 6.94 38.98 6.54 39.1C6.15333 39.2333 5.70667 39.3 5.2 39.3ZM5.96 37.06C6.30667 37.06 6.62667 37.0267 6.92 36.96C7.21333 36.88 7.49333 36.7667 7.76 36.62V31.98C7.76 31.7 7.68 31.4867 7.52 31.34C7.36 31.1933 7.16 31.0933 6.92 31.04C6.68 30.9867 6.42667 30.96 6.16 30.96C5.54667 30.96 5.06 31.0933 4.7 31.36C4.35333 31.6267 4.1 32 3.94 32.48C3.79333 32.9467 3.72 33.48 3.72 34.08C3.72 35 3.92667 35.7267 4.34 36.26C4.75333 36.7933 5.29333 37.06 5.96 37.06ZM13.1755 39V29.94C13.3621 29.78 13.6955 29.6 14.1755 29.4C14.6555 29.1867 15.2021 29 15.8155 28.84C16.4421 28.6667 17.0688 28.58 17.6955 28.58C18.3221 28.58 18.8155 28.6267 19.1755 28.72C19.5355 28.8133 19.8088 28.9333 19.9955 29.08V31.26C19.7688 31.2067 19.4821 31.1667 19.1355 31.14C18.7888 31.1133 18.4288 31.1 18.0555 31.1C17.6821 31.0867 17.3288 31.0867 16.9955 31.1C16.6621 31.1133 16.3821 31.14 16.1555 31.18V39H13.1755ZM21.7902 39V29.02H24.7702L24.7902 39H21.7902ZM21.7302 27.5V25.2H24.8102V27.5H21.7302ZM28.2128 39V31.16H26.7128V28.88H28.2328V28.64C28.2328 27.9867 28.2995 27.4267 28.4328 26.96C28.5661 26.4933 28.7528 26.1067 28.9928 25.8C29.2328 25.48 29.5128 25.2333 29.8328 25.06C30.1528 24.8867 30.5061 24.7667 30.8928 24.7C31.2795 24.62 31.6795 24.58 32.0928 24.58C32.3061 24.58 32.5395 24.6 32.7928 24.64C33.0461 24.6667 33.2528 24.7133 33.4128 24.78V27.42C33.2928 27.2733 33.1595 27.16 33.0128 27.08C32.8661 27 32.6661 26.96 32.4128 26.96C32.2395 26.96 32.0795 26.98 31.9328 27.02C31.7861 27.06 31.6595 27.1267 31.5528 27.22C31.4461 27.3133 31.3595 27.4467 31.2928 27.62C31.2395 27.7933 31.2128 28.0133 31.2128 28.28V28.88H33.4128V31.16H31.1928V39H28.2128ZM36.0839 39V31.16H34.5839V28.88H36.1039V28.64C36.1039 27.9867 36.1706 27.4267 36.3039 26.96C36.4372 26.4933 36.6239 26.1067 36.8639 25.8C37.1039 25.48 37.3839 25.2333 37.7039 25.06C38.0239 24.8867 38.3772 24.7667 38.7639 24.7C39.1506 24.62 39.5506 24.58 39.9639 24.58C40.1772 24.58 40.4106 24.6 40.6639 24.64C40.9172 24.6667 41.1239 24.7133 41.2839 24.78V27.42C41.1639 27.2733 41.0306 27.16 40.8839 27.08C40.7372 27 40.5372 26.96 40.2839 26.96C40.1106 26.96 39.9506 26.98 39.8039 27.02C39.6572 27.06 39.5306 27.1267 39.4239 27.22C39.3172 27.3133 39.2306 27.4467 39.1639 27.62C39.1106 27.7933 39.0839 28.0133 39.0839 28.28V28.88H41.2839V31.16H39.0639V39H36.0839ZM43.1439 39V29.02H46.1239L46.1439 39H43.1439ZM43.0839 27.5V25.2H46.1639V27.5H43.0839ZM52.9405 39.4C51.7671 39.4 50.8938 39.1267 50.3205 38.58C49.7471 38.02 49.4605 37.2333 49.4605 36.22V31.16H47.9805V28.88H49.4605V26.1H52.5805V28.88H54.8005V31.16H52.5805V35.84C52.5805 36.1867 52.6538 36.4467 52.8005 36.62C52.9471 36.78 53.1938 36.86 53.5405 36.86C53.7405 36.86 53.9605 36.82 54.2005 36.74C54.4405 36.66 54.6405 36.56 54.8005 36.44V39C54.5205 39.1467 54.2138 39.2467 53.8805 39.3C53.5605 39.3667 53.2471 39.4 52.9405 39.4ZM57.0622 39V24.88H60.0622V30.88L58.8022 30.2C59.3355 29.7333 59.9622 29.3533 60.6822 29.06C61.4155 28.7533 62.1622 28.6 62.9222 28.6C63.6555 28.6 64.3022 28.72 64.8622 28.96C65.4222 29.2 65.8555 29.5933 66.1622 30.14C66.4822 30.6733 66.6422 31.4133 66.6422 32.36V39H63.6622V32.98C63.6622 32.3133 63.4955 31.8333 63.1622 31.54C62.8422 31.2333 62.3689 31.08 61.7422 31.08C61.4222 31.08 61.1022 31.1267 60.7822 31.22C60.4755 31.3 60.2355 31.4067 60.0622 31.54L60.0222 39H57.0622ZM72.2888 39.3C71.5688 39.3 70.9488 39.22 70.4288 39.06C69.9221 38.9133 69.4421 38.7467 68.9888 38.56V35.94C69.2688 36.1267 69.5821 36.32 69.9288 36.52C70.2754 36.7067 70.6554 36.86 71.0688 36.98C71.4954 37.1 71.9421 37.16 72.4088 37.16C72.8888 37.16 73.2221 37.08 73.4088 36.92C73.6088 36.7467 73.7088 36.54 73.7088 36.3C73.7088 36.0733 73.6088 35.8933 73.4088 35.76C73.2088 35.6133 72.9488 35.4933 72.6288 35.4C72.3088 35.3067 71.9688 35.22 71.6088 35.14C71.2888 35.0733 70.9688 34.9733 70.6488 34.84C70.3288 34.6933 70.0421 34.5 69.7888 34.26C69.5354 34.02 69.3288 33.7267 69.1688 33.38C69.0221 33.02 68.9488 32.5867 68.9488 32.08C68.9488 31.4267 69.0754 30.8867 69.3288 30.46C69.5821 30.02 69.9154 29.6667 70.3288 29.4C70.7421 29.1333 71.1888 28.9467 71.6688 28.84C72.1488 28.72 72.6154 28.6667 73.0688 28.68C73.8954 28.7067 74.5488 28.8 75.0288 28.96C75.5221 29.1067 75.9688 29.3 76.3688 29.54V31.88C75.9154 31.6267 75.4621 31.3933 75.0088 31.18C74.5688 30.9533 74.0621 30.84 73.4888 30.84C72.9688 30.84 72.5954 30.92 72.3688 31.08C72.1421 31.24 72.0288 31.4533 72.0288 31.72C72.0288 31.9733 72.1021 32.1733 72.2488 32.32C72.4088 32.4667 72.6154 32.5867 72.8688 32.68C73.1221 32.76 73.4021 32.84 73.7088 32.92C74.0421 33 74.3821 33.1 74.7288 33.22C75.0888 33.3267 75.4221 33.4867 75.7288 33.7C76.0488 33.9 76.3021 34.1867 76.4888 34.56C76.6888 34.92 76.7888 35.4 76.7888 36C76.7754 36.8133 76.5554 37.4667 76.1288 37.96C75.7021 38.44 75.1488 38.7867 74.4688 39C73.8021 39.2 73.0754 39.3 72.2888 39.3Z" fill="#222222"/>
<path d="M1.32 15V5.94C1.50667 5.78 1.84 5.6 2.32 5.4C2.8 5.18667 3.34667 5 3.96 4.84C4.58667 4.66667 5.21333 4.58 5.84 4.58C6.46667 4.58 6.96 4.62667 7.32 4.72C7.68 4.81333 7.95333 4.93333 8.14 5.08V7.26C7.91333 7.20667 7.62667 7.16667 7.28 7.14C6.93333 7.11333 6.57333 7.1 6.2 7.1C5.82667 7.08667 5.47333 7.08667 5.14 7.1C4.80667 7.11333 4.52667 7.14 4.3 7.18V15H1.32ZM13.7747 15.3C13.1614 15.3 12.5814 15.24 12.0347 15.12C11.5014 15.0133 11.028 14.8333 10.6147 14.58C10.2147 14.3133 9.90135 13.96 9.67469 13.52C9.44802 13.0667 9.33469 12.5067 9.33469 11.84C9.33469 11.2133 9.46135 10.6667 9.71469 10.2C9.98135 9.73333 10.3814 9.37333 10.9147 9.12C11.448 8.86667 12.1214 8.74 12.9347 8.74C13.388 8.74 13.828 8.78667 14.2547 8.88C14.6814 8.97333 15.0614 9.1 15.3947 9.26C15.7414 9.42 16.0147 9.59333 16.2147 9.78L16.3347 11.22C16.068 11.06 15.748 10.9333 15.3747 10.84C15.0014 10.7467 14.6014 10.7 14.1747 10.7C13.5214 10.7 13.0414 10.8 12.7347 11C12.4414 11.1867 12.2947 11.4867 12.2947 11.9C12.2947 12.1533 12.368 12.38 12.5147 12.58C12.6614 12.78 12.8547 12.9333 13.0947 13.04C13.348 13.1467 13.608 13.2 13.8747 13.2C14.5547 13.2 15.028 13.1533 15.2947 13.06C15.5747 12.9667 15.7147 12.78 15.7147 12.5V8.78C15.7147 8.16667 15.5147 7.72667 15.1147 7.46C14.728 7.18 14.1747 7.04 13.4547 7.04C12.868 7.04 12.2747 7.14667 11.6747 7.36C11.088 7.56 10.608 7.80667 10.2347 8.1V5.46C10.5814 5.24667 11.1147 5.04667 11.8347 4.86C12.568 4.67333 13.388 4.58 14.2947 4.58C14.6147 4.58 14.968 4.60667 15.3547 4.66C15.7414 4.71333 16.128 4.81333 16.5147 4.96C16.9014 5.09333 17.2547 5.29333 17.5747 5.56C17.908 5.82667 18.1747 6.16667 18.3747 6.58C18.5747 6.99333 18.6747 7.50667 18.6747 8.12L18.6547 12.9C18.6547 13.4733 18.4614 13.94 18.0747 14.3C17.688 14.6467 17.128 14.9 16.3947 15.06C15.6747 15.22 14.8014 15.3 13.7747 15.3ZM26.06 15.26C25.34 15.26 24.66 15.1533 24.02 14.94C23.38 14.7267 22.8133 14.4067 22.32 13.98C21.8267 13.5533 21.44 13.0133 21.16 12.36C20.88 11.7067 20.74 10.9467 20.74 10.08C20.74 9.16 20.8733 8.36 21.14 7.68C21.4067 6.98667 21.7733 6.41333 22.24 5.96C22.72 5.50667 23.28 5.16667 23.92 4.94C24.56 4.71333 25.2667 4.6 26.04 4.6C26.5867 4.6 27.1467 4.66 27.72 4.78C28.3067 4.88667 28.82 5.04 29.26 5.24V7.8C28.7933 7.58667 28.3333 7.41333 27.88 7.28C27.44 7.13333 26.9867 7.06 26.52 7.06C25.68 7.06 25 7.27333 24.48 7.7C23.9733 8.11333 23.72 8.79333 23.72 9.74C23.72 10.74 23.9467 11.4933 24.4 12C24.8533 12.5067 25.6067 12.76 26.66 12.76C27.1533 12.76 27.6267 12.6733 28.08 12.5C28.5467 12.3267 28.9467 12.1467 29.28 11.96V14.5C28.8133 14.74 28.3267 14.9267 27.82 15.06C27.3133 15.1933 26.7267 15.26 26.06 15.26ZM31.3591 15V0.879999H34.3591V6.88L33.0991 6.2C33.6324 5.73333 34.2591 5.35333 34.9791 5.06C35.7124 4.75333 36.4591 4.6 37.2191 4.6C37.9524 4.6 38.5991 4.72 39.1591 4.96C39.7191 5.2 40.1524 5.59333 40.4591 6.14C40.7791 6.67333 40.9391 7.41333 40.9391 8.36V15H37.9591V8.98C37.9591 8.31333 37.7924 7.83333 37.4591 7.54C37.1391 7.23333 36.6657 7.08 36.0391 7.08C35.7191 7.08 35.3991 7.12667 35.0791 7.22C34.7724 7.3 34.5324 7.40667 34.3591 7.54L34.3191 15H31.3591ZM48.1656 15.3C47.1523 15.3 46.2523 15.0933 45.4656 14.68C44.6923 14.2533 44.0856 13.6533 43.6456 12.88C43.219 12.0933 43.0056 11.16 43.0056 10.08C43.0056 8.32 43.439 6.96 44.3056 6C45.1856 5.02667 46.439 4.54 48.0656 4.54C49.1856 4.54 50.0856 4.78 50.7656 5.26C51.459 5.74 51.9656 6.44 52.2856 7.36C52.6056 8.28 52.759 9.4 52.7456 10.72H45.0456L44.7256 8.82H50.2856L49.8456 9.76C49.8323 8.68 49.679 7.92 49.3856 7.48C49.0923 7.04 48.6123 6.82 47.9456 6.82C47.5723 6.82 47.2323 6.91333 46.9256 7.1C46.6323 7.28667 46.399 7.6 46.2256 8.04C46.0656 8.46667 45.9856 9.06 45.9856 9.82C45.9856 10.78 46.2123 11.52 46.6656 12.04C47.1323 12.56 47.8723 12.82 48.8856 12.82C49.259 12.82 49.6256 12.78 49.9856 12.7C50.359 12.6067 50.7056 12.5 51.0256 12.38C51.3456 12.26 51.619 12.1533 51.8456 12.06V14.62C51.3656 14.82 50.8256 14.98 50.2256 15.1C49.639 15.2333 48.9523 15.3 48.1656 15.3ZM57.7761 15H54.8161V1.06H57.7761V15ZM5.2 39.3C4.28 39.2467 3.48667 39.0333 2.82 38.66C2.16667 38.2867 1.65333 37.74 1.28 37.02C0.92 36.2867 0.74 35.3667 0.74 34.26C0.74 33.14 0.88 32.2133 1.16 31.48C1.44 30.7333 1.82667 30.1533 2.32 29.74C2.82667 29.3267 3.43333 29.0333 4.14 28.86C4.84667 28.6867 5.63333 28.6 6.5 28.6C7.34 28.6 8.07333 28.7067 8.7 28.92C9.32667 29.1333 9.81333 29.44 10.16 29.84C10.5067 30.24 10.68 30.7333 10.68 31.32V39.12C10.68 39.8267 10.5667 40.4467 10.34 40.98C10.1133 41.5267 9.77333 41.98 9.32 42.34C8.88 42.7133 8.34 42.9933 7.7 43.18C7.07333 43.3667 6.34667 43.46 5.52 43.46C4.62667 43.46 3.86 43.3933 3.22 43.26C2.59333 43.14 2.11333 42.9867 1.78 42.8V40.18C1.98 40.26 2.27333 40.3667 2.66 40.5C3.04667 40.6333 3.48 40.74 3.96 40.82C4.44 40.9133 4.92 40.96 5.4 40.96C6.02667 40.96 6.50667 40.8733 6.84 40.7C7.18667 40.5267 7.42667 40.2933 7.56 40C7.69333 39.7067 7.76 39.3733 7.76 39V37.36L8.34 37.78C8.12667 38.0867 7.87333 38.3533 7.58 38.58C7.28667 38.8067 6.94 38.98 6.54 39.1C6.15333 39.2333 5.70667 39.3 5.2 39.3ZM5.96 37.06C6.30667 37.06 6.62667 37.0267 6.92 36.96C7.21333 36.88 7.49333 36.7667 7.76 36.62V31.98C7.76 31.7 7.68 31.4867 7.52 31.34C7.36 31.1933 7.16 31.0933 6.92 31.04C6.68 30.9867 6.42667 30.96 6.16 30.96C5.54667 30.96 5.06 31.0933 4.7 31.36C4.35333 31.6267 4.1 32 3.94 32.48C3.79333 32.9467 3.72 33.48 3.72 34.08C3.72 35 3.92667 35.7267 4.34 36.26C4.75333 36.7933 5.29333 37.06 5.96 37.06ZM13.1755 39V29.94C13.3621 29.78 13.6955 29.6 14.1755 29.4C14.6555 29.1867 15.2021 29 15.8155 28.84C16.4421 28.6667 17.0688 28.58 17.6955 28.58C18.3221 28.58 18.8155 28.6267 19.1755 28.72C19.5355 28.8133 19.8088 28.9333 19.9955 29.08V31.26C19.7688 31.2067 19.4821 31.1667 19.1355 31.14C18.7888 31.1133 18.4288 31.1 18.0555 31.1C17.6821 31.0867 17.3288 31.0867 16.9955 31.1C16.6621 31.1133 16.3821 31.14 16.1555 31.18V39H13.1755ZM21.7902 39V29.02H24.7702L24.7902 39H21.7902ZM21.7302 27.5V25.2H24.8102V27.5H21.7302ZM28.2128 39V31.16H26.7128V28.88H28.2328V28.64C28.2328 27.9867 28.2995 27.4267 28.4328 26.96C28.5661 26.4933 28.7528 26.1067 28.9928 25.8C29.2328 25.48 29.5128 25.2333 29.8328 25.06C30.1528 24.8867 30.5061 24.7667 30.8928 24.7C31.2795 24.62 31.6795 24.58 32.0928 24.58C32.3061 24.58 32.5395 24.6 32.7928 24.64C33.0461 24.6667 33.2528 24.7133 33.4128 24.78V27.42C33.2928 27.2733 33.1595 27.16 33.0128 27.08C32.8661 27 32.6661 26.96 32.4128 26.96C32.2395 26.96 32.0795 26.98 31.9328 27.02C31.7861 27.06 31.6595 27.1267 31.5528 27.22C31.4461 27.3133 31.3595 27.4467 31.2928 27.62C31.2395 27.7933 31.2128 28.0133 31.2128 28.28V28.88H33.4128V31.16H31.1928V39H28.2128ZM36.0839 39V31.16H34.5839V28.88H36.1039V28.64C36.1039 27.9867 36.1706 27.4267 36.3039 26.96C36.4372 26.4933 36.6239 26.1067 36.8639 25.8C37.1039 25.48 37.3839 25.2333 37.7039 25.06C38.0239 24.8867 38.3772 24.7667 38.7639 24.7C39.1506 24.62 39.5506 24.58 39.9639 24.58C40.1772 24.58 40.4106 24.6 40.6639 24.64C40.9172 24.6667 41.1239 24.7133 41.2839 24.78V27.42C41.1639 27.2733 41.0306 27.16 40.8839 27.08C40.7372 27 40.5372 26.96 40.2839 26.96C40.1106 26.96 39.9506 26.98 39.8039 27.02C39.6572 27.06 39.5306 27.1267 39.4239 27.22C39.3172 27.3133 39.2306 27.4467 39.1639 27.62C39.1106 27.7933 39.0839 28.0133 39.0839 28.28V28.88H41.2839V31.16H39.0639V39H36.0839ZM43.1439 39V29.02H46.1239L46.1439 39H43.1439ZM43.0839 27.5V25.2H46.1639V27.5H43.0839ZM52.9405 39.4C51.7671 39.4 50.8938 39.1267 50.3205 38.58C49.7471 38.02 49.4605 37.2333 49.4605 36.22V31.16H47.9805V28.88H49.4605V26.1H52.5805V28.88H54.8005V31.16H52.5805V35.84C52.5805 36.1867 52.6538 36.4467 52.8005 36.62C52.9471 36.78 53.1938 36.86 53.5405 36.86C53.7405 36.86 53.9605 36.82 54.2005 36.74C54.4405 36.66 54.6405 36.56 54.8005 36.44V39C54.5205 39.1467 54.2138 39.2467 53.8805 39.3C53.5605 39.3667 53.2471 39.4 52.9405 39.4ZM57.0622 39V24.88H60.0622V30.88L58.8022 30.2C59.3355 29.7333 59.9622 29.3533 60.6822 29.06C61.4155 28.7533 62.1622 28.6 62.9222 28.6C63.6555 28.6 64.3022 28.72 64.8622 28.96C65.4222 29.2 65.8555 29.5933 66.1622 30.14C66.4822 30.6733 66.6422 31.4133 66.6422 32.36V39H63.6622V32.98C63.6622 32.3133 63.4955 31.8333 63.1622 31.54C62.8422 31.2333 62.3689 31.08 61.7422 31.08C61.4222 31.08 61.1022 31.1267 60.7822 31.22C60.4755 31.3 60.2355 31.4067 60.0622 31.54L60.0222 39H57.0622ZM72.2888 39.3C71.5688 39.3 70.9488 39.22 70.4288 39.06C69.9221 38.9133 69.4421 38.7467 68.9888 38.56V35.94C69.2688 36.1267 69.5821 36.32 69.9288 36.52C70.2754 36.7067 70.6554 36.86 71.0688 36.98C71.4954 37.1 71.9421 37.16 72.4088 37.16C72.8888 37.16 73.2221 37.08 73.4088 36.92C73.6088 36.7467 73.7088 36.54 73.7088 36.3C73.7088 36.0733 73.6088 35.8933 73.4088 35.76C73.2088 35.6133 72.9488 35.4933 72.6288 35.4C72.3088 35.3067 71.9688 35.22 71.6088 35.14C71.2888 35.0733 70.9688 34.9733 70.6488 34.84C70.3288 34.6933 70.0421 34.5 69.7888 34.26C69.5354 34.02 69.3288 33.7267 69.1688 33.38C69.0221 33.02 68.9488 32.5867 68.9488 32.08C68.9488 31.4267 69.0754 30.8867 69.3288 30.46C69.5821 30.02 69.9154 29.6667 70.3288 29.4C70.7421 29.1333 71.1888 28.9467 71.6688 28.84C72.1488 28.72 72.6154 28.6667 73.0688 28.68C73.8954 28.7067 74.5488 28.8 75.0288 28.96C75.5221 29.1067 75.9688 29.3 76.3688 29.54V31.88C75.9154 31.6267 75.4621 31.3933 75.0088 31.18C74.5688 30.9533 74.0621 30.84 73.4888 30.84C72.9688 30.84 72.5954 30.92 72.3688 31.08C72.1421 31.24 72.0288 31.4533 72.0288 31.72C72.0288 31.9733 72.1021 32.1733 72.2488 32.32C72.4088 32.4667 72.6154 32.5867 72.8688 32.68C73.1221 32.76 73.4021 32.84 73.7088 32.92C74.0421 33 74.3821 33.1 74.7288 33.22C75.0888 33.3267 75.4221 33.4867 75.7288 33.7C76.0488 33.9 76.3021 34.1867 76.4888 34.56C76.6888 34.92 76.7888 35.4 76.7888 36C76.7754 36.8133 76.5554 37.4667 76.1288 37.96C75.7021 38.44 75.1488 38.7867 74.4688 39C73.8021 39.2 73.0754 39.3 72.2888 39.3Z" fill="black" fill-opacity="0.2"/>
<path d="M1.32 15V5.94C1.50667 5.78 1.84 5.6 2.32 5.4C2.8 5.18667 3.34667 5 3.96 4.84C4.58667 4.66667 5.21333 4.58 5.84 4.58C6.46667 4.58 6.96 4.62667 7.32 4.72C7.68 4.81333 7.95333 4.93333 8.14 5.08V7.26C7.91333 7.20667 7.62667 7.16667 7.28 7.14C6.93333 7.11333 6.57333 7.1 6.2 7.1C5.82667 7.08667 5.47333 7.08667 5.14 7.1C4.80667 7.11333 4.52667 7.14 4.3 7.18V15H1.32ZM13.7747 15.3C13.1614 15.3 12.5814 15.24 12.0347 15.12C11.5014 15.0133 11.028 14.8333 10.6147 14.58C10.2147 14.3133 9.90135 13.96 9.67469 13.52C9.44802 13.0667 9.33469 12.5067 9.33469 11.84C9.33469 11.2133 9.46135 10.6667 9.71469 10.2C9.98135 9.73333 10.3814 9.37333 10.9147 9.12C11.448 8.86667 12.1214 8.74 12.9347 8.74C13.388 8.74 13.828 8.78667 14.2547 8.88C14.6814 8.97333 15.0614 9.1 15.3947 9.26C15.7414 9.42 16.0147 9.59333 16.2147 9.78L16.3347 11.22C16.068 11.06 15.748 10.9333 15.3747 10.84C15.0014 10.7467 14.6014 10.7 14.1747 10.7C13.5214 10.7 13.0414 10.8 12.7347 11C12.4414 11.1867 12.2947 11.4867 12.2947 11.9C12.2947 12.1533 12.368 12.38 12.5147 12.58C12.6614 12.78 12.8547 12.9333 13.0947 13.04C13.348 13.1467 13.608 13.2 13.8747 13.2C14.5547 13.2 15.028 13.1533 15.2947 13.06C15.5747 12.9667 15.7147 12.78 15.7147 12.5V8.78C15.7147 8.16667 15.5147 7.72667 15.1147 7.46C14.728 7.18 14.1747 7.04 13.4547 7.04C12.868 7.04 12.2747 7.14667 11.6747 7.36C11.088 7.56 10.608 7.80667 10.2347 8.1V5.46C10.5814 5.24667 11.1147 5.04667 11.8347 4.86C12.568 4.67333 13.388 4.58 14.2947 4.58C14.6147 4.58 14.968 4.60667 15.3547 4.66C15.7414 4.71333 16.128 4.81333 16.5147 4.96C16.9014 5.09333 17.2547 5.29333 17.5747 5.56C17.908 5.82667 18.1747 6.16667 18.3747 6.58C18.5747 6.99333 18.6747 7.50667 18.6747 8.12L18.6547 12.9C18.6547 13.4733 18.4614 13.94 18.0747 14.3C17.688 14.6467 17.128 14.9 16.3947 15.06C15.6747 15.22 14.8014 15.3 13.7747 15.3ZM26.06 15.26C25.34 15.26 24.66 15.1533 24.02 14.94C23.38 14.7267 22.8133 14.4067 22.32 13.98C21.8267 13.5533 21.44 13.0133 21.16 12.36C20.88 11.7067 20.74 10.9467 20.74 10.08C20.74 9.16 20.8733 8.36 21.14 7.68C21.4067 6.98667 21.7733 6.41333 22.24 5.96C22.72 5.50667 23.28 5.16667 23.92 4.94C24.56 4.71333 25.2667 4.6 26.04 4.6C26.5867 4.6 27.1467 4.66 27.72 4.78C28.3067 4.88667 28.82 5.04 29.26 5.24V7.8C28.7933 7.58667 28.3333 7.41333 27.88 7.28C27.44 7.13333 26.9867 7.06 26.52 7.06C25.68 7.06 25 7.27333 24.48 7.7C23.9733 8.11333 23.72 8.79333 23.72 9.74C23.72 10.74 23.9467 11.4933 24.4 12C24.8533 12.5067 25.6067 12.76 26.66 12.76C27.1533 12.76 27.6267 12.6733 28.08 12.5C28.5467 12.3267 28.9467 12.1467 29.28 11.96V14.5C28.8133 14.74 28.3267 14.9267 27.82 15.06C27.3133 15.1933 26.7267 15.26 26.06 15.26ZM31.3591 15V0.879999H34.3591V6.88L33.0991 6.2C33.6324 5.73333 34.2591 5.35333 34.9791 5.06C35.7124 4.75333 36.4591 4.6 37.2191 4.6C37.9524 4.6 38.5991 4.72 39.1591 4.96C39.7191 5.2 40.1524 5.59333 40.4591 6.14C40.7791 6.67333 40.9391 7.41333 40.9391 8.36V15H37.9591V8.98C37.9591 8.31333 37.7924 7.83333 37.4591 7.54C37.1391 7.23333 36.6657 7.08 36.0391 7.08C35.7191 7.08 35.3991 7.12667 35.0791 7.22C34.7724 7.3 34.5324 7.40667 34.3591 7.54L34.3191 15H31.3591ZM48.1656 15.3C47.1523 15.3 46.2523 15.0933 45.4656 14.68C44.6923 14.2533 44.0856 13.6533 43.6456 12.88C43.219 12.0933 43.0056 11.16 43.0056 10.08C43.0056 8.32 43.439 6.96 44.3056 6C45.1856 5.02667 46.439 4.54 48.0656 4.54C49.1856 4.54 50.0856 4.78 50.7656 5.26C51.459 5.74 51.9656 6.44 52.2856 7.36C52.6056 8.28 52.759 9.4 52.7456 10.72H45.0456L44.7256 8.82H50.2856L49.8456 9.76C49.8323 8.68 49.679 7.92 49.3856 7.48C49.0923 7.04 48.6123 6.82 47.9456 6.82C47.5723 6.82 47.2323 6.91333 46.9256 7.1C46.6323 7.28667 46.399 7.6 46.2256 8.04C46.0656 8.46667 45.9856 9.06 45.9856 9.82C45.9856 10.78 46.2123 11.52 46.6656 12.04C47.1323 12.56 47.8723 12.82 48.8856 12.82C49.259 12.82 49.6256 12.78 49.9856 12.7C50.359 12.6067 50.7056 12.5 51.0256 12.38C51.3456 12.26 51.619 12.1533 51.8456 12.06V14.62C51.3656 14.82 50.8256 14.98 50.2256 15.1C49.639 15.2333 48.9523 15.3 48.1656 15.3ZM57.7761 15H54.8161V1.06H57.7761V15ZM5.2 39.3C4.28 39.2467 3.48667 39.0333 2.82 38.66C2.16667 38.2867 1.65333 37.74 1.28 37.02C0.92 36.2867 0.74 35.3667 0.74 34.26C0.74 33.14 0.88 32.2133 1.16 31.48C1.44 30.7333 1.82667 30.1533 2.32 29.74C2.82667 29.3267 3.43333 29.0333 4.14 28.86C4.84667 28.6867 5.63333 28.6 6.5 28.6C7.34 28.6 8.07333 28.7067 8.7 28.92C9.32667 29.1333 9.81333 29.44 10.16 29.84C10.5067 30.24 10.68 30.7333 10.68 31.32V39.12C10.68 39.8267 10.5667 40.4467 10.34 40.98C10.1133 41.5267 9.77333 41.98 9.32 42.34C8.88 42.7133 8.34 42.9933 7.7 43.18C7.07333 43.3667 6.34667 43.46 5.52 43.46C4.62667 43.46 3.86 43.3933 3.22 43.26C2.59333 43.14 2.11333 42.9867 1.78 42.8V40.18C1.98 40.26 2.27333 40.3667 2.66 40.5C3.04667 40.6333 3.48 40.74 3.96 40.82C4.44 40.9133 4.92 40.96 5.4 40.96C6.02667 40.96 6.50667 40.8733 6.84 40.7C7.18667 40.5267 7.42667 40.2933 7.56 40C7.69333 39.7067 7.76 39.3733 7.76 39V37.36L8.34 37.78C8.12667 38.0867 7.87333 38.3533 7.58 38.58C7.28667 38.8067 6.94 38.98 6.54 39.1C6.15333 39.2333 5.70667 39.3 5.2 39.3ZM5.96 37.06C6.30667 37.06 6.62667 37.0267 6.92 36.96C7.21333 36.88 7.49333 36.7667 7.76 36.62V31.98C7.76 31.7 7.68 31.4867 7.52 31.34C7.36 31.1933 7.16 31.0933 6.92 31.04C6.68 30.9867 6.42667 30.96 6.16 30.96C5.54667 30.96 5.06 31.0933 4.7 31.36C4.35333 31.6267 4.1 32 3.94 32.48C3.79333 32.9467 3.72 33.48 3.72 34.08C3.72 35 3.92667 35.7267 4.34 36.26C4.75333 36.7933 5.29333 37.06 5.96 37.06ZM13.1755 39V29.94C13.3621 29.78 13.6955 29.6 14.1755 29.4C14.6555 29.1867 15.2021 29 15.8155 28.84C16.4421 28.6667 17.0688 28.58 17.6955 28.58C18.3221 28.58 18.8155 28.6267 19.1755 28.72C19.5355 28.8133 19.8088 28.9333 19.9955 29.08V31.26C19.7688 31.2067 19.4821 31.1667 19.1355 31.14C18.7888 31.1133 18.4288 31.1 18.0555 31.1C17.6821 31.0867 17.3288 31.0867 16.9955 31.1C16.6621 31.1133 16.3821 31.14 16.1555 31.18V39H13.1755ZM21.7902 39V29.02H24.7702L24.7902 39H21.7902ZM21.7302 27.5V25.2H24.8102V27.5H21.7302ZM28.2128 39V31.16H26.7128V28.88H28.2328V28.64C28.2328 27.9867 28.2995 27.4267 28.4328 26.96C28.5661 26.4933 28.7528 26.1067 28.9928 25.8C29.2328 25.48 29.5128 25.2333 29.8328 25.06C30.1528 24.8867 30.5061 24.7667 30.8928 24.7C31.2795 24.62 31.6795 24.58 32.0928 24.58C32.3061 24.58 32.5395 24.6 32.7928 24.64C33.0461 24.6667 33.2528 24.7133 33.4128 24.78V27.42C33.2928 27.2733 33.1595 27.16 33.0128 27.08C32.8661 27 32.6661 26.96 32.4128 26.96C32.2395 26.96 32.0795 26.98 31.9328 27.02C31.7861 27.06 31.6595 27.1267 31.5528 27.22C31.4461 27.3133 31.3595 27.4467 31.2928 27.62C31.2395 27.7933 31.2128 28.0133 31.2128 28.28V28.88H33.4128V31.16H31.1928V39H28.2128ZM36.0839 39V31.16H34.5839V28.88H36.1039V28.64C36.1039 27.9867 36.1706 27.4267 36.3039 26.96C36.4372 26.4933 36.6239 26.1067 36.8639 25.8C37.1039 25.48 37.3839 25.2333 37.7039 25.06C38.0239 24.8867 38.3772 24.7667 38.7639 24.7C39.1506 24.62 39.5506 24.58 39.9639 24.58C40.1772 24.58 40.4106 24.6 40.6639 24.64C40.9172 24.6667 41.1239 24.7133 41.2839 24.78V27.42C41.1639 27.2733 41.0306 27.16 40.8839 27.08C40.7372 27 40.5372 26.96 40.2839 26.96C40.1106 26.96 39.9506 26.98 39.8039 27.02C39.6572 27.06 39.5306 27.1267 39.4239 27.22C39.3172 27.3133 39.2306 27.4467 39.1639 27.62C39.1106 27.7933 39.0839 28.0133 39.0839 28.28V28.88H41.2839V31.16H39.0639V39H36.0839ZM43.1439 39V29.02H46.1239L46.1439 39H43.1439ZM43.0839 27.5V25.2H46.1639V27.5H43.0839ZM52.9405 39.4C51.7671 39.4 50.8938 39.1267 50.3205 38.58C49.7471 38.02 49.4605 37.2333 49.4605 36.22V31.16H47.9805V28.88H49.4605V26.1H52.5805V28.88H54.8005V31.16H52.5805V35.84C52.5805 36.1867 52.6538 36.4467 52.8005 36.62C52.9471 36.78 53.1938 36.86 53.5405 36.86C53.7405 36.86 53.9605 36.82 54.2005 36.74C54.4405 36.66 54.6405 36.56 54.8005 36.44V39C54.5205 39.1467 54.2138 39.2467 53.8805 39.3C53.5605 39.3667 53.2471 39.4 52.9405 39.4ZM57.0622 39V24.88H60.0622V30.88L58.8022 30.2C59.3355 29.7333 59.9622 29.3533 60.6822 29.06C61.4155 28.7533 62.1622 28.6 62.9222 28.6C63.6555 28.6 64.3022 28.72 64.8622 28.96C65.4222 29.2 65.8555 29.5933 66.1622 30.14C66.4822 30.6733 66.6422 31.4133 66.6422 32.36V39H63.6622V32.98C63.6622 32.3133 63.4955 31.8333 63.1622 31.54C62.8422 31.2333 62.3689 31.08 61.7422 31.08C61.4222 31.08 61.1022 31.1267 60.7822 31.22C60.4755 31.3 60.2355 31.4067 60.0622 31.54L60.0222 39H57.0622ZM72.2888 39.3C71.5688 39.3 70.9488 39.22 70.4288 39.06C69.9221 38.9133 69.4421 38.7467 68.9888 38.56V35.94C69.2688 36.1267 69.5821 36.32 69.9288 36.52C70.2754 36.7067 70.6554 36.86 71.0688 36.98C71.4954 37.1 71.9421 37.16 72.4088 37.16C72.8888 37.16 73.2221 37.08 73.4088 36.92C73.6088 36.7467 73.7088 36.54 73.7088 36.3C73.7088 36.0733 73.6088 35.8933 73.4088 35.76C73.2088 35.6133 72.9488 35.4933 72.6288 35.4C72.3088 35.3067 71.9688 35.22 71.6088 35.14C71.2888 35.0733 70.9688 34.9733 70.6488 34.84C70.3288 34.6933 70.0421 34.5 69.7888 34.26C69.5354 34.02 69.3288 33.7267 69.1688 33.38C69.0221 33.02 68.9488 32.5867 68.9488 32.08C68.9488 31.4267 69.0754 30.8867 69.3288 30.46C69.5821 30.02 69.9154 29.6667 70.3288 29.4C70.7421 29.1333 71.1888 28.9467 71.6688 28.84C72.1488 28.72 72.6154 28.6667 73.0688 28.68C73.8954 28.7067 74.5488 28.8 75.0288 28.96C75.5221 29.1067 75.9688 29.3 76.3688 29.54V31.88C75.9154 31.6267 75.4621 31.3933 75.0088 31.18C74.5688 30.9533 74.0621 30.84 73.4888 30.84C72.9688 30.84 72.5954 30.92 72.3688 31.08C72.1421 31.24 72.0288 31.4533 72.0288 31.72C72.0288 31.9733 72.1021 32.1733 72.2488 32.32C72.4088 32.4667 72.6154 32.5867 72.8688 32.68C73.1221 32.76 73.4021 32.84 73.7088 32.92C74.0421 33 74.3821 33.1 74.7288 33.22C75.0888 33.3267 75.4221 33.4867 75.7288 33.7C76.0488 33.9 76.3021 34.1867 76.4888 34.56C76.6888 34.92 76.7888 35.4 76.7888 36C76.7754 36.8133 76.5554 37.4667 76.1288 37.96C75.7021 38.44 75.1488 38.7867 74.4688 39C73.8021 39.2 73.0754 39.3 72.2888 39.3Z" fill="black" fill-opacity="0.2"/>
<path d="M1.32 15V5.94C1.50667 5.78 1.84 5.6 2.32 5.4C2.8 5.18667 3.34667 5 3.96 4.84C4.58667 4.66667 5.21333 4.58 5.84 4.58C6.46667 4.58 6.96 4.62667 7.32 4.72C7.68 4.81333 7.95333 4.93333 8.14 5.08V7.26C7.91333 7.20667 7.62667 7.16667 7.28 7.14C6.93333 7.11333 6.57333 7.1 6.2 7.1C5.82667 7.08667 5.47333 7.08667 5.14 7.1C4.80667 7.11333 4.52667 7.14 4.3 7.18V15H1.32ZM13.7747 15.3C13.1614 15.3 12.5814 15.24 12.0347 15.12C11.5014 15.0133 11.028 14.8333 10.6147 14.58C10.2147 14.3133 9.90135 13.96 9.67469 13.52C9.44802 13.0667 9.33469 12.5067 9.33469 11.84C9.33469 11.2133 9.46135 10.6667 9.71469 10.2C9.98135 9.73333 10.3814 9.37333 10.9147 9.12C11.448 8.86667 12.1214 8.74 12.9347 8.74C13.388 8.74 13.828 8.78667 14.2547 8.88C14.6814 8.97333 15.0614 9.1 15.3947 9.26C15.7414 9.42 16.0147 9.59333 16.2147 9.78L16.3347 11.22C16.068 11.06 15.748 10.9333 15.3747 10.84C15.0014 10.7467 14.6014 10.7 14.1747 10.7C13.5214 10.7 13.0414 10.8 12.7347 11C12.4414 11.1867 12.2947 11.4867 12.2947 11.9C12.2947 12.1533 12.368 12.38 12.5147 12.58C12.6614 12.78 12.8547 12.9333 13.0947 13.04C13.348 13.1467 13.608 13.2 13.8747 13.2C14.5547 13.2 15.028 13.1533 15.2947 13.06C15.5747 12.9667 15.7147 12.78 15.7147 12.5V8.78C15.7147 8.16667 15.5147 7.72667 15.1147 7.46C14.728 7.18 14.1747 7.04 13.4547 7.04C12.868 7.04 12.2747 7.14667 11.6747 7.36C11.088 7.56 10.608 7.80667 10.2347 8.1V5.46C10.5814 5.24667 11.1147 5.04667 11.8347 4.86C12.568 4.67333 13.388 4.58 14.2947 4.58C14.6147 4.58 14.968 4.60667 15.3547 4.66C15.7414 4.71333 16.128 4.81333 16.5147 4.96C16.9014 5.09333 17.2547 5.29333 17.5747 5.56C17.908 5.82667 18.1747 6.16667 18.3747 6.58C18.5747 6.99333 18.6747 7.50667 18.6747 8.12L18.6547 12.9C18.6547 13.4733 18.4614 13.94 18.0747 14.3C17.688 14.6467 17.128 14.9 16.3947 15.06C15.6747 15.22 14.8014 15.3 13.7747 15.3ZM26.06 15.26C25.34 15.26 24.66 15.1533 24.02 14.94C23.38 14.7267 22.8133 14.4067 22.32 13.98C21.8267 13.5533 21.44 13.0133 21.16 12.36C20.88 11.7067 20.74 10.9467 20.74 10.08C20.74 9.16 20.8733 8.36 21.14 7.68C21.4067 6.98667 21.7733 6.41333 22.24 5.96C22.72 5.50667 23.28 5.16667 23.92 4.94C24.56 4.71333 25.2667 4.6 26.04 4.6C26.5867 4.6 27.1467 4.66 27.72 4.78C28.3067 4.88667 28.82 5.04 29.26 5.24V7.8C28.7933 7.58667 28.3333 7.41333 27.88 7.28C27.44 7.13333 26.9867 7.06 26.52 7.06C25.68 7.06 25 7.27333 24.48 7.7C23.9733 8.11333 23.72 8.79333 23.72 9.74C23.72 10.74 23.9467 11.4933 24.4 12C24.8533 12.5067 25.6067 12.76 26.66 12.76C27.1533 12.76 27.6267 12.6733 28.08 12.5C28.5467 12.3267 28.9467 12.1467 29.28 11.96V14.5C28.8133 14.74 28.3267 14.9267 27.82 15.06C27.3133 15.1933 26.7267 15.26 26.06 15.26ZM31.3591 15V0.879999H34.3591V6.88L33.0991 6.2C33.6324 5.73333 34.2591 5.35333 34.9791 5.06C35.7124 4.75333 36.4591 4.6 37.2191 4.6C37.9524 4.6 38.5991 4.72 39.1591 4.96C39.7191 5.2 40.1524 5.59333 40.4591 6.14C40.7791 6.67333 40.9391 7.41333 40.9391 8.36V15H37.9591V8.98C37.9591 8.31333 37.7924 7.83333 37.4591 7.54C37.1391 7.23333 36.6657 7.08 36.0391 7.08C35.7191 7.08 35.3991 7.12667 35.0791 7.22C34.7724 7.3 34.5324 7.40667 34.3591 7.54L34.3191 15H31.3591ZM48.1656 15.3C47.1523 15.3 46.2523 15.0933 45.4656 14.68C44.6923 14.2533 44.0856 13.6533 43.6456 12.88C43.219 12.0933 43.0056 11.16 43.0056 10.08C43.0056 8.32 43.439 6.96 44.3056 6C45.1856 5.02667 46.439 4.54 48.0656 4.54C49.1856 4.54 50.0856 4.78 50.7656 5.26C51.459 5.74 51.9656 6.44 52.2856 7.36C52.6056 8.28 52.759 9.4 52.7456 10.72H45.0456L44.7256 8.82H50.2856L49.8456 9.76C49.8323 8.68 49.679 7.92 49.3856 7.48C49.0923 7.04 48.6123 6.82 47.9456 6.82C47.5723 6.82 47.2323 6.91333 46.9256 7.1C46.6323 7.28667 46.399 7.6 46.2256 8.04C46.0656 8.46667 45.9856 9.06 45.9856 9.82C45.9856 10.78 46.2123 11.52 46.6656 12.04C47.1323 12.56 47.8723 12.82 48.8856 12.82C49.259 12.82 49.6256 12.78 49.9856 12.7C50.359 12.6067 50.7056 12.5 51.0256 12.38C51.3456 12.26 51.619 12.1533 51.8456 12.06V14.62C51.3656 14.82 50.8256 14.98 50.2256 15.1C49.639 15.2333 48.9523 15.3 48.1656 15.3ZM57.7761 15H54.8161V1.06H57.7761V15ZM5.2 39.3C4.28 39.2467 3.48667 39.0333 2.82 38.66C2.16667 38.2867 1.65333 37.74 1.28 37.02C0.92 36.2867 0.74 35.3667 0.74 34.26C0.74 33.14 0.88 32.2133 1.16 31.48C1.44 30.7333 1.82667 30.1533 2.32 29.74C2.82667 29.3267 3.43333 29.0333 4.14 28.86C4.84667 28.6867 5.63333 28.6 6.5 28.6C7.34 28.6 8.07333 28.7067 8.7 28.92C9.32667 29.1333 9.81333 29.44 10.16 29.84C10.5067 30.24 10.68 30.7333 10.68 31.32V39.12C10.68 39.8267 10.5667 40.4467 10.34 40.98C10.1133 41.5267 9.77333 41.98 9.32 42.34C8.88 42.7133 8.34 42.9933 7.7 43.18C7.07333 43.3667 6.34667 43.46 5.52 43.46C4.62667 43.46 3.86 43.3933 3.22 43.26C2.59333 43.14 2.11333 42.9867 1.78 42.8V40.18C1.98 40.26 2.27333 40.3667 2.66 40.5C3.04667 40.6333 3.48 40.74 3.96 40.82C4.44 40.9133 4.92 40.96 5.4 40.96C6.02667 40.96 6.50667 40.8733 6.84 40.7C7.18667 40.5267 7.42667 40.2933 7.56 40C7.69333 39.7067 7.76 39.3733 7.76 39V37.36L8.34 37.78C8.12667 38.0867 7.87333 38.3533 7.58 38.58C7.28667 38.8067 6.94 38.98 6.54 39.1C6.15333 39.2333 5.70667 39.3 5.2 39.3ZM5.96 37.06C6.30667 37.06 6.62667 37.0267 6.92 36.96C7.21333 36.88 7.49333 36.7667 7.76 36.62V31.98C7.76 31.7 7.68 31.4867 7.52 31.34C7.36 31.1933 7.16 31.0933 6.92 31.04C6.68 30.9867 6.42667 30.96 6.16 30.96C5.54667 30.96 5.06 31.0933 4.7 31.36C4.35333 31.6267 4.1 32 3.94 32.48C3.79333 32.9467 3.72 33.48 3.72 34.08C3.72 35 3.92667 35.7267 4.34 36.26C4.75333 36.7933 5.29333 37.06 5.96 37.06ZM13.1755 39V29.94C13.3621 29.78 13.6955 29.6 14.1755 29.4C14.6555 29.1867 15.2021 29 15.8155 28.84C16.4421 28.6667 17.0688 28.58 17.6955 28.58C18.3221 28.58 18.8155 28.6267 19.1755 28.72C19.5355 28.8133 19.8088 28.9333 19.9955 29.08V31.26C19.7688 31.2067 19.4821 31.1667 19.1355 31.14C18.7888 31.1133 18.4288 31.1 18.0555 31.1C17.6821 31.0867 17.3288 31.0867 16.9955 31.1C16.6621 31.1133 16.3821 31.14 16.1555 31.18V39H13.1755ZM21.7902 39V29.02H24.7702L24.7902 39H21.7902ZM21.7302 27.5V25.2H24.8102V27.5H21.7302ZM28.2128 39V31.16H26.7128V28.88H28.2328V28.64C28.2328 27.9867 28.2995 27.4267 28.4328 26.96C28.5661 26.4933 28.7528 26.1067 28.9928 25.8C29.2328 25.48 29.5128 25.2333 29.8328 25.06C30.1528 24.8867 30.5061 24.7667 30.8928 24.7C31.2795 24.62 31.6795 24.58 32.0928 24.58C32.3061 24.58 32.5395 24.6 32.7928 24.64C33.0461 24.6667 33.2528 24.7133 33.4128 24.78V27.42C33.2928 27.2733 33.1595 27.16 33.0128 27.08C32.8661 27 32.6661 26.96 32.4128 26.96C32.2395 26.96 32.0795 26.98 31.9328 27.02C31.7861 27.06 31.6595 27.1267 31.5528 27.22C31.4461 27.3133 31.3595 27.4467 31.2928 27.62C31.2395 27.7933 31.2128 28.0133 31.2128 28.28V28.88H33.4128V31.16H31.1928V39H28.2128ZM36.0839 39V31.16H34.5839V28.88H36.1039V28.64C36.1039 27.9867 36.1706 27.4267 36.3039 26.96C36.4372 26.4933 36.6239 26.1067 36.8639 25.8C37.1039 25.48 37.3839 25.2333 37.7039 25.06C38.0239 24.8867 38.3772 24.7667 38.7639 24.7C39.1506 24.62 39.5506 24.58 39.9639 24.58C40.1772 24.58 40.4106 24.6 40.6639 24.64C40.9172 24.6667 41.1239 24.7133 41.2839 24.78V27.42C41.1639 27.2733 41.0306 27.16 40.8839 27.08C40.7372 27 40.5372 26.96 40.2839 26.96C40.1106 26.96 39.9506 26.98 39.8039 27.02C39.6572 27.06 39.5306 27.1267 39.4239 27.22C39.3172 27.3133 39.2306 27.4467 39.1639 27.62C39.1106 27.7933 39.0839 28.0133 39.0839 28.28V28.88H41.2839V31.16H39.0639V39H36.0839ZM43.1439 39V29.02H46.1239L46.1439 39H43.1439ZM43.0839 27.5V25.2H46.1639V27.5H43.0839ZM52.9405 39.4C51.7671 39.4 50.8938 39.1267 50.3205 38.58C49.7471 38.02 49.4605 37.2333 49.4605 36.22V31.16H47.9805V28.88H49.4605V26.1H52.5805V28.88H54.8005V31.16H52.5805V35.84C52.5805 36.1867 52.6538 36.4467 52.8005 36.62C52.9471 36.78 53.1938 36.86 53.5405 36.86C53.7405 36.86 53.9605 36.82 54.2005 36.74C54.4405 36.66 54.6405 36.56 54.8005 36.44V39C54.5205 39.1467 54.2138 39.2467 53.8805 39.3C53.5605 39.3667 53.2471 39.4 52.9405 39.4ZM57.0622 39V24.88H60.0622V30.88L58.8022 30.2C59.3355 29.7333 59.9622 29.3533 60.6822 29.06C61.4155 28.7533 62.1622 28.6 62.9222 28.6C63.6555 28.6 64.3022 28.72 64.8622 28.96C65.4222 29.2 65.8555 29.5933 66.1622 30.14C66.4822 30.6733 66.6422 31.4133 66.6422 32.36V39H63.6622V32.98C63.6622 32.3133 63.4955 31.8333 63.1622 31.54C62.8422 31.2333 62.3689 31.08 61.7422 31.08C61.4222 31.08 61.1022 31.1267 60.7822 31.22C60.4755 31.3 60.2355 31.4067 60.0622 31.54L60.0222 39H57.0622ZM72.2888 39.3C71.5688 39.3 70.9488 39.22 70.4288 39.06C69.9221 38.9133 69.4421 38.7467 68.9888 38.56V35.94C69.2688 36.1267 69.5821 36.32 69.9288 36.52C70.2754 36.7067 70.6554 36.86 71.0688 36.98C71.4954 37.1 71.9421 37.16 72.4088 37.16C72.8888 37.16 73.2221 37.08 73.4088 36.92C73.6088 36.7467 73.7088 36.54 73.7088 36.3C73.7088 36.0733 73.6088 35.8933 73.4088 35.76C73.2088 35.6133 72.9488 35.4933 72.6288 35.4C72.3088 35.3067 71.9688 35.22 71.6088 35.14C71.2888 35.0733 70.9688 34.9733 70.6488 34.84C70.3288 34.6933 70.0421 34.5 69.7888 34.26C69.5354 34.02 69.3288 33.7267 69.1688 33.38C69.0221 33.02 68.9488 32.5867 68.9488 32.08C68.9488 31.4267 69.0754 30.8867 69.3288 30.46C69.5821 30.02 69.9154 29.6667 70.3288 29.4C70.7421 29.1333 71.1888 28.9467 71.6688 28.84C72.1488 28.72 72.6154 28.6667 73.0688 28.68C73.8954 28.7067 74.5488 28.8 75.0288 28.96C75.5221 29.1067 75.9688 29.3 76.3688 29.54V31.88C75.9154 31.6267 75.4621 31.3933 75.0088 31.18C74.5688 30.9533 74.0621 30.84 73.4888 30.84C72.9688 30.84 72.5954 30.92 72.3688 31.08C72.1421 31.24 72.0288 31.4533 72.0288 31.72C72.0288 31.9733 72.1021 32.1733 72.2488 32.32C72.4088 32.4667 72.6154 32.5867 72.8688 32.68C73.1221 32.76 73.4021 32.84 73.7088 32.92C74.0421 33 74.3821 33.1 74.7288 33.22C75.0888 33.3267 75.4221 33.4867 75.7288 33.7C76.0488 33.9 76.3021 34.1867 76.4888 34.56C76.6888 34.92 76.7888 35.4 76.7888 36C76.7754 36.8133 76.5554 37.4667 76.1288 37.96C75.7021 38.44 75.1488 38.7867 74.4688 39C73.8021 39.2 73.0754 39.3 72.2888 39.3Z" fill="black" fill-opacity="0.2"/>
<path d="M1.32 15V5.94C1.50667 5.78 1.84 5.6 2.32 5.4C2.8 5.18667 3.34667 5 3.96 4.84C4.58667 4.66667 5.21333 4.58 5.84 4.58C6.46667 4.58 6.96 4.62667 7.32 4.72C7.68 4.81333 7.95333 4.93333 8.14 5.08V7.26C7.91333 7.20667 7.62667 7.16667 7.28 7.14C6.93333 7.11333 6.57333 7.1 6.2 7.1C5.82667 7.08667 5.47333 7.08667 5.14 7.1C4.80667 7.11333 4.52667 7.14 4.3 7.18V15H1.32ZM13.7747 15.3C13.1614 15.3 12.5814 15.24 12.0347 15.12C11.5014 15.0133 11.028 14.8333 10.6147 14.58C10.2147 14.3133 9.90135 13.96 9.67469 13.52C9.44802 13.0667 9.33469 12.5067 9.33469 11.84C9.33469 11.2133 9.46135 10.6667 9.71469 10.2C9.98135 9.73333 10.3814 9.37333 10.9147 9.12C11.448 8.86667 12.1214 8.74 12.9347 8.74C13.388 8.74 13.828 8.78667 14.2547 8.88C14.6814 8.97333 15.0614 9.1 15.3947 9.26C15.7414 9.42 16.0147 9.59333 16.2147 9.78L16.3347 11.22C16.068 11.06 15.748 10.9333 15.3747 10.84C15.0014 10.7467 14.6014 10.7 14.1747 10.7C13.5214 10.7 13.0414 10.8 12.7347 11C12.4414 11.1867 12.2947 11.4867 12.2947 11.9C12.2947 12.1533 12.368 12.38 12.5147 12.58C12.6614 12.78 12.8547 12.9333 13.0947 13.04C13.348 13.1467 13.608 13.2 13.8747 13.2C14.5547 13.2 15.028 13.1533 15.2947 13.06C15.5747 12.9667 15.7147 12.78 15.7147 12.5V8.78C15.7147 8.16667 15.5147 7.72667 15.1147 7.46C14.728 7.18 14.1747 7.04 13.4547 7.04C12.868 7.04 12.2747 7.14667 11.6747 7.36C11.088 7.56 10.608 7.80667 10.2347 8.1V5.46C10.5814 5.24667 11.1147 5.04667 11.8347 4.86C12.568 4.67333 13.388 4.58 14.2947 4.58C14.6147 4.58 14.968 4.60667 15.3547 4.66C15.7414 4.71333 16.128 4.81333 16.5147 4.96C16.9014 5.09333 17.2547 5.29333 17.5747 5.56C17.908 5.82667 18.1747 6.16667 18.3747 6.58C18.5747 6.99333 18.6747 7.50667 18.6747 8.12L18.6547 12.9C18.6547 13.4733 18.4614 13.94 18.0747 14.3C17.688 14.6467 17.128 14.9 16.3947 15.06C15.6747 15.22 14.8014 15.3 13.7747 15.3ZM26.06 15.26C25.34 15.26 24.66 15.1533 24.02 14.94C23.38 14.7267 22.8133 14.4067 22.32 13.98C21.8267 13.5533 21.44 13.0133 21.16 12.36C20.88 11.7067 20.74 10.9467 20.74 10.08C20.74 9.16 20.8733 8.36 21.14 7.68C21.4067 6.98667 21.7733 6.41333 22.24 5.96C22.72 5.50667 23.28 5.16667 23.92 4.94C24.56 4.71333 25.2667 4.6 26.04 4.6C26.5867 4.6 27.1467 4.66 27.72 4.78C28.3067 4.88667 28.82 5.04 29.26 5.24V7.8C28.7933 7.58667 28.3333 7.41333 27.88 7.28C27.44 7.13333 26.9867 7.06 26.52 7.06C25.68 7.06 25 7.27333 24.48 7.7C23.9733 8.11333 23.72 8.79333 23.72 9.74C23.72 10.74 23.9467 11.4933 24.4 12C24.8533 12.5067 25.6067 12.76 26.66 12.76C27.1533 12.76 27.6267 12.6733 28.08 12.5C28.5467 12.3267 28.9467 12.1467 29.28 11.96V14.5C28.8133 14.74 28.3267 14.9267 27.82 15.06C27.3133 15.1933 26.7267 15.26 26.06 15.26ZM31.3591 15V0.879999H34.3591V6.88L33.0991 6.2C33.6324 5.73333 34.2591 5.35333 34.9791 5.06C35.7124 4.75333 36.4591 4.6 37.2191 4.6C37.9524 4.6 38.5991 4.72 39.1591 4.96C39.7191 5.2 40.1524 5.59333 40.4591 6.14C40.7791 6.67333 40.9391 7.41333 40.9391 8.36V15H37.9591V8.98C37.9591 8.31333 37.7924 7.83333 37.4591 7.54C37.1391 7.23333 36.6657 7.08 36.0391 7.08C35.7191 7.08 35.3991 7.12667 35.0791 7.22C34.7724 7.3 34.5324 7.40667 34.3591 7.54L34.3191 15H31.3591ZM48.1656 15.3C47.1523 15.3 46.2523 15.0933 45.4656 14.68C44.6923 14.2533 44.0856 13.6533 43.6456 12.88C43.219 12.0933 43.0056 11.16 43.0056 10.08C43.0056 8.32 43.439 6.96 44.3056 6C45.1856 5.02667 46.439 4.54 48.0656 4.54C49.1856 4.54 50.0856 4.78 50.7656 5.26C51.459 5.74 51.9656 6.44 52.2856 7.36C52.6056 8.28 52.759 9.4 52.7456 10.72H45.0456L44.7256 8.82H50.2856L49.8456 9.76C49.8323 8.68 49.679 7.92 49.3856 7.48C49.0923 7.04 48.6123 6.82 47.9456 6.82C47.5723 6.82 47.2323 6.91333 46.9256 7.1C46.6323 7.28667 46.399 7.6 46.2256 8.04C46.0656 8.46667 45.9856 9.06 45.9856 9.82C45.9856 10.78 46.2123 11.52 46.6656 12.04C47.1323 12.56 47.8723 12.82 48.8856 12.82C49.259 12.82 49.6256 12.78 49.9856 12.7C50.359 12.6067 50.7056 12.5 51.0256 12.38C51.3456 12.26 51.619 12.1533 51.8456 12.06V14.62C51.3656 14.82 50.8256 14.98 50.2256 15.1C49.639 15.2333 48.9523 15.3 48.1656 15.3ZM57.7761 15H54.8161V1.06H57.7761V15ZM5.2 39.3C4.28 39.2467 3.48667 39.0333 2.82 38.66C2.16667 38.2867 1.65333 37.74 1.28 37.02C0.92 36.2867 0.74 35.3667 0.74 34.26C0.74 33.14 0.88 32.2133 1.16 31.48C1.44 30.7333 1.82667 30.1533 2.32 29.74C2.82667 29.3267 3.43333 29.0333 4.14 28.86C4.84667 28.6867 5.63333 28.6 6.5 28.6C7.34 28.6 8.07333 28.7067 8.7 28.92C9.32667 29.1333 9.81333 29.44 10.16 29.84C10.5067 30.24 10.68 30.7333 10.68 31.32V39.12C10.68 39.8267 10.5667 40.4467 10.34 40.98C10.1133 41.5267 9.77333 41.98 9.32 42.34C8.88 42.7133 8.34 42.9933 7.7 43.18C7.07333 43.3667 6.34667 43.46 5.52 43.46C4.62667 43.46 3.86 43.3933 3.22 43.26C2.59333 43.14 2.11333 42.9867 1.78 42.8V40.18C1.98 40.26 2.27333 40.3667 2.66 40.5C3.04667 40.6333 3.48 40.74 3.96 40.82C4.44 40.9133 4.92 40.96 5.4 40.96C6.02667 40.96 6.50667 40.8733 6.84 40.7C7.18667 40.5267 7.42667 40.2933 7.56 40C7.69333 39.7067 7.76 39.3733 7.76 39V37.36L8.34 37.78C8.12667 38.0867 7.87333 38.3533 7.58 38.58C7.28667 38.8067 6.94 38.98 6.54 39.1C6.15333 39.2333 5.70667 39.3 5.2 39.3ZM5.96 37.06C6.30667 37.06 6.62667 37.0267 6.92 36.96C7.21333 36.88 7.49333 36.7667 7.76 36.62V31.98C7.76 31.7 7.68 31.4867 7.52 31.34C7.36 31.1933 7.16 31.0933 6.92 31.04C6.68 30.9867 6.42667 30.96 6.16 30.96C5.54667 30.96 5.06 31.0933 4.7 31.36C4.35333 31.6267 4.1 32 3.94 32.48C3.79333 32.9467 3.72 33.48 3.72 34.08C3.72 35 3.92667 35.7267 4.34 36.26C4.75333 36.7933 5.29333 37.06 5.96 37.06ZM13.1755 39V29.94C13.3621 29.78 13.6955 29.6 14.1755 29.4C14.6555 29.1867 15.2021 29 15.8155 28.84C16.4421 28.6667 17.0688 28.58 17.6955 28.58C18.3221 28.58 18.8155 28.6267 19.1755 28.72C19.5355 28.8133 19.8088 28.9333 19.9955 29.08V31.26C19.7688 31.2067 19.4821 31.1667 19.1355 31.14C18.7888 31.1133 18.4288 31.1 18.0555 31.1C17.6821 31.0867 17.3288 31.0867 16.9955 31.1C16.6621 31.1133 16.3821 31.14 16.1555 31.18V39H13.1755ZM21.7902 39V29.02H24.7702L24.7902 39H21.7902ZM21.7302 27.5V25.2H24.8102V27.5H21.7302ZM28.2128 39V31.16H26.7128V28.88H28.2328V28.64C28.2328 27.9867 28.2995 27.4267 28.4328 26.96C28.5661 26.4933 28.7528 26.1067 28.9928 25.8C29.2328 25.48 29.5128 25.2333 29.8328 25.06C30.1528 24.8867 30.5061 24.7667 30.8928 24.7C31.2795 24.62 31.6795 24.58 32.0928 24.58C32.3061 24.58 32.5395 24.6 32.7928 24.64C33.0461 24.6667 33.2528 24.7133 33.4128 24.78V27.42C33.2928 27.2733 33.1595 27.16 33.0128 27.08C32.8661 27 32.6661 26.96 32.4128 26.96C32.2395 26.96 32.0795 26.98 31.9328 27.02C31.7861 27.06 31.6595 27.1267 31.5528 27.22C31.4461 27.3133 31.3595 27.4467 31.2928 27.62C31.2395 27.7933 31.2128 28.0133 31.2128 28.28V28.88H33.4128V31.16H31.1928V39H28.2128ZM36.0839 39V31.16H34.5839V28.88H36.1039V28.64C36.1039 27.9867 36.1706 27.4267 36.3039 26.96C36.4372 26.4933 36.6239 26.1067 36.8639 25.8C37.1039 25.48 37.3839 25.2333 37.7039 25.06C38.0239 24.8867 38.3772 24.7667 38.7639 24.7C39.1506 24.62 39.5506 24.58 39.9639 24.58C40.1772 24.58 40.4106 24.6 40.6639 24.64C40.9172 24.6667 41.1239 24.7133 41.2839 24.78V27.42C41.1639 27.2733 41.0306 27.16 40.8839 27.08C40.7372 27 40.5372 26.96 40.2839 26.96C40.1106 26.96 39.9506 26.98 39.8039 27.02C39.6572 27.06 39.5306 27.1267 39.4239 27.22C39.3172 27.3133 39.2306 27.4467 39.1639 27.62C39.1106 27.7933 39.0839 28.0133 39.0839 28.28V28.88H41.2839V31.16H39.0639V39H36.0839ZM43.1439 39V29.02H46.1239L46.1439 39H43.1439ZM43.0839 27.5V25.2H46.1639V27.5H43.0839ZM52.9405 39.4C51.7671 39.4 50.8938 39.1267 50.3205 38.58C49.7471 38.02 49.4605 37.2333 49.4605 36.22V31.16H47.9805V28.88H49.4605V26.1H52.5805V28.88H54.8005V31.16H52.5805V35.84C52.5805 36.1867 52.6538 36.4467 52.8005 36.62C52.9471 36.78 53.1938 36.86 53.5405 36.86C53.7405 36.86 53.9605 36.82 54.2005 36.74C54.4405 36.66 54.6405 36.56 54.8005 36.44V39C54.5205 39.1467 54.2138 39.2467 53.8805 39.3C53.5605 39.3667 53.2471 39.4 52.9405 39.4ZM57.0622 39V24.88H60.0622V30.88L58.8022 30.2C59.3355 29.7333 59.9622 29.3533 60.6822 29.06C61.4155 28.7533 62.1622 28.6 62.9222 28.6C63.6555 28.6 64.3022 28.72 64.8622 28.96C65.4222 29.2 65.8555 29.5933 66.1622 30.14C66.4822 30.6733 66.6422 31.4133 66.6422 32.36V39H63.6622V32.98C63.6622 32.3133 63.4955 31.8333 63.1622 31.54C62.8422 31.2333 62.3689 31.08 61.7422 31.08C61.4222 31.08 61.1022 31.1267 60.7822 31.22C60.4755 31.3 60.2355 31.4067 60.0622 31.54L60.0222 39H57.0622ZM72.2888 39.3C71.5688 39.3 70.9488 39.22 70.4288 39.06C69.9221 38.9133 69.4421 38.7467 68.9888 38.56V35.94C69.2688 36.1267 69.5821 36.32 69.9288 36.52C70.2754 36.7067 70.6554 36.86 71.0688 36.98C71.4954 37.1 71.9421 37.16 72.4088 37.16C72.8888 37.16 73.2221 37.08 73.4088 36.92C73.6088 36.7467 73.7088 36.54 73.7088 36.3C73.7088 36.0733 73.6088 35.8933 73.4088 35.76C73.2088 35.6133 72.9488 35.4933 72.6288 35.4C72.3088 35.3067 71.9688 35.22 71.6088 35.14C71.2888 35.0733 70.9688 34.9733 70.6488 34.84C70.3288 34.6933 70.0421 34.5 69.7888 34.26C69.5354 34.02 69.3288 33.7267 69.1688 33.38C69.0221 33.02 68.9488 32.5867 68.9488 32.08C68.9488 31.4267 69.0754 30.8867 69.3288 30.46C69.5821 30.02 69.9154 29.6667 70.3288 29.4C70.7421 29.1333 71.1888 28.9467 71.6688 28.84C72.1488 28.72 72.6154 28.6667 73.0688 28.68C73.8954 28.7067 74.5488 28.8 75.0288 28.96C75.5221 29.1067 75.9688 29.3 76.3688 29.54V31.88C75.9154 31.6267 75.4621 31.3933 75.0088 31.18C74.5688 30.9533 74.0621 30.84 73.4888 30.84C72.9688 30.84 72.5954 30.92 72.3688 31.08C72.1421 31.24 72.0288 31.4533 72.0288 31.72C72.0288 31.9733 72.1021 32.1733 72.2488 32.32C72.4088 32.4667 72.6154 32.5867 72.8688 32.68C73.1221 32.76 73.4021 32.84 73.7088 32.92C74.0421 33 74.3821 33.1 74.7288 33.22C75.0888 33.3267 75.4221 33.4867 75.7288 33.7C76.0488 33.9 76.3021 34.1867 76.4888 34.56C76.6888 34.92 76.7888 35.4 76.7888 36C76.7754 36.8133 76.5554 37.4667 76.1288 37.96C75.7021 38.44 75.1488 38.7867 74.4688 39C73.8021 39.2 73.0754 39.3 72.2888 39.3Z" fill="black" fill-opacity="0.2"/>
</svg>
