<svg width="23" height="19" viewBox="0 0 23 19" fill="none" xmlns="http://www.w3.org/2000/svg">
<path d="M0.584 13V2.128C0.808 1.936 1.208 1.72 1.784 1.48C2.36 1.224 3.016 1 3.752 0.808C4.504 0.599999 5.256 0.495999 6.008 0.495999C6.76 0.495999 7.352 0.552 7.784 0.664C8.216 0.776 8.544 0.919999 8.768 1.096V3.712C8.496 3.648 8.152 3.6 7.736 3.568C7.32 3.536 6.888 3.52 6.44 3.52C5.992 3.504 5.568 3.504 5.168 3.52C4.768 3.536 4.432 3.568 4.16 3.616V13H0.584ZM15.5056 13.36C14.4016 13.296 13.4496 13.04 12.6496 12.592C11.8656 12.144 11.2496 11.488 10.8016 10.624C10.3696 9.744 10.1536 8.64 10.1536 7.312C10.1536 5.968 10.3216 4.856 10.6576 3.976C10.9936 3.08 11.4576 2.384 12.0496 1.888C12.6576 1.392 13.3856 1.04 14.2336 0.831999C15.0816 0.623999 16.0256 0.519999 17.0656 0.519999C18.0736 0.519999 18.9536 0.647999 19.7056 0.904C20.4576 1.16 21.0416 1.528 21.4576 2.008C21.8736 2.488 22.0816 3.08 22.0816 3.784V13.144C22.0816 13.992 21.9456 14.736 21.6736 15.376C21.4016 16.032 20.9936 16.576 20.4496 17.008C19.9216 17.456 19.2736 17.792 18.5056 18.016C17.7536 18.24 16.8816 18.352 15.8896 18.352C14.8176 18.352 13.8976 18.272 13.1296 18.112C12.3776 17.968 11.8016 17.784 11.4016 17.56V14.416C11.6416 14.512 11.9936 14.64 12.4576 14.8C12.9216 14.96 13.4416 15.088 14.0176 15.184C14.5936 15.296 15.1696 15.352 15.7456 15.352C16.4976 15.352 17.0736 15.248 17.4736 15.04C17.8896 14.832 18.1776 14.552 18.3376 14.2C18.4976 13.848 18.5776 13.448 18.5776 13V11.032L19.2736 11.536C19.0176 11.904 18.7136 12.224 18.3616 12.496C18.0096 12.768 17.5936 12.976 17.1136 13.12C16.6496 13.28 16.1136 13.36 15.5056 13.36ZM16.4176 10.672C16.8336 10.672 17.2176 10.632 17.5696 10.552C17.9216 10.456 18.2576 10.32 18.5776 10.144V4.576C18.5776 4.24 18.4816 3.984 18.2896 3.808C18.0976 3.632 17.8576 3.512 17.5696 3.448C17.2816 3.384 16.9776 3.352 16.6576 3.352C15.9216 3.352 15.3376 3.512 14.9056 3.832C14.4896 4.152 14.1856 4.6 13.9936 5.176C13.8176 5.736 13.7296 6.376 13.7296 7.096C13.7296 8.2 13.9776 9.072 14.4736 9.712C14.9696 10.352 15.6176 10.672 16.4176 10.672Z" fill="#222222"/>
</svg>
